HIERARCHY
ROOT Hips
{
    OFFSET 0.000000 0.000000 0.000000
    CHANNELS 6 Xposition Yposition Zposition Zrotation Xrotation Yrotation
    JOINT Spine
    {
        OFFSET -0.000000 0.076824 0.000000
        CHANNELS 3 Zrotation Xrotation Yrotation
        JOINT Spine1
        {
            OFFSET -0.000000 0.205639 0.000000
            CHANNELS 3 Zrotation Xrotation Yrotation
            JOINT Neck
            {
                OFFSET -0.000000 0.204794 0.018618
                CHANNELS 3 Zrotation Xrotation Yrotation
                JOINT Head
                {
                    OFFSET -0.000000 0.131164 -0.018738
                    CHANNELS 3 Zrotation Xrotation Yrotation
                    End Site
                    {
                        OFFSET -0.000000 0.187377 0.000000
                    }
                }
            }
            JOINT LeftShoulder
            {
                OFFSET 0.037892 0.189814 -0.002396
                CHANNELS 3 Zrotation Xrotation Yrotation
                JOINT LeftArm
                {
                    OFFSET 0.104721 0.000000 0.000000
                    CHANNELS 3 Zrotation Xrotation Yrotation
                    JOINT LeftForeArm
                    {
                        OFFSET 0.316555 0.000000 0.000000
                        CHANNELS 3 Zrotation Xrotation Yrotation
                        JOINT LeftHand
                        {
                            OFFSET 0.270628 0.000000 0.000000
                            CHANNELS 3 Zrotation Xrotation Yrotation
                            JOINT LeftHandThumb1
                            {
                                OFFSET 0.023422 -0.014053 0.046844
                                CHANNELS 3 Zrotation Xrotation Yrotation
                                JOINT LeftHandThumb2
                                {
                                    OFFSET 0.028107 0.000000 0.000000
                                    CHANNELS 3 Zrotation Xrotation Yrotation
                                    JOINT LeftHandThumb3
                                    {
                                        OFFSET 0.028107 0.000000 0.000000
                                        CHANNELS 3 Zrotation Xrotation Yrotation
                                        End Site
                                        {
                                            OFFSET 0.026333 0.000000 0.000000
                                        }
                                    }
                                }
                            }
                            JOINT LeftHandIndex1
                            {
                                OFFSET 0.084320 0.000000 0.032791
                                CHANNELS 3 Zrotation Xrotation Yrotation
                                JOINT LeftHandIndex2
                                {
                                    OFFSET 0.046844 0.000000 0.000000
                                    CHANNELS 3 Zrotation Xrotation Yrotation
                                    JOINT LeftHandIndex3
                                    {
                                        OFFSET 0.023422 0.000000 0.000000
                                        CHANNELS 3 Zrotation Xrotation Yrotation
                                        End Site
                                        {
                                            OFFSET 0.021944 0.000000 0.000000
                                        }
                                    }
                                }
                            }
                            JOINT LeftHandMiddle1
                            {
                                OFFSET 0.084320 0.000000 0.010868
                                CHANNELS 3 Zrotation Xrotation Yrotation
                                JOINT LeftHandMiddle2
                                {
                                    OFFSET 0.051529 0.000000 0.000000
                                    CHANNELS 3 Zrotation Xrotation Yrotation
                                    JOINT LeftHandMiddle3
                                    {
                                        OFFSET 0.028107 0.000000 0.000000
                                        CHANNELS 3 Zrotation Xrotation Yrotation
                                        End Site
                                        {
                                            OFFSET 0.026333 0.000000 0.000000
                                        }
                                    }
                                }
                            }
                            JOINT LeftHandRing1
                            {
                                OFFSET 0.079635 0.000000 -0.010868
                                CHANNELS 3 Zrotation Xrotation Yrotation
                                JOINT LeftHandRing2
                                {
                                    OFFSET 0.046844 0.000000 0.000000
                                    CHANNELS 3 Zrotation Xrotation Yrotation
                                    JOINT LeftHandRing3
                                    {
                                        OFFSET 0.023422 0.000000 0.000000
                                        CHANNELS 3 Zrotation Xrotation Yrotation
                                        End Site
                                        {
                                            OFFSET 0.021944 0.000000 0.000000
                                        }
                                    }
                                }
                            }
                            JOINT LeftHandPinky1
                            {
                                OFFSET 0.074951 0.000000 -0.032791
                                CHANNELS 3 Zrotation Xrotation Yrotation
                                JOINT LeftHandPinky2
                                {
                                    OFFSET 0.037475 0.000000 0.000000
                                    CHANNELS 3 Zrotation Xrotation Yrotation
                                    JOINT LeftHandPinky3
                                    {
                                        OFFSET 0.018738 0.000000 0.000000
                                        CHANNELS 3 Zrotation Xrotation Yrotation
                                        End Site
                                        {
                                            OFFSET 0.017555 0.000000 0.000000
                                        }
                                    }
                                }
                            }
                        }
                    }
                }
            }
            JOINT RightShoulder
            {
                OFFSET -0.036963 0.189814 -0.002396
                CHANNELS 3 Zrotation Xrotation Yrotation
                JOINT RightArm
                {
                    OFFSET -0.104721 0.000000 0.000000
                    CHANNELS 3 Zrotation Xrotation Yrotation
                    JOINT RightForeArm
                    {
                        OFFSET -0.316555 0.000000 0.000000
                        CHANNELS 3 Zrotation Xrotation Yrotation
                        JOINT RightHand
                        {
                            OFFSET -0.270628 0.000000 0.000000
                            CHANNELS 3 Zrotation Xrotation Yrotation
                            JOINT RightHandThumb1
                            {
                                OFFSET -0.023422 -0.014053 0.046844
                                CHANNELS 3 Zrotation Xrotation Yrotation
                                JOINT RightHandThumb2
                                {
                                    OFFSET -0.028107 0.000000 0.000000
                                    CHANNELS 3 Zrotation Xrotation Yrotation
                                    JOINT RightHandThumb3
                                    {
                                        OFFSET -0.028107 0.000000 0.000000
                                        CHANNELS 3 Zrotation Xrotation Yrotation
                                        End Site
                                        {
                                            OFFSET -0.026333 0.000000 0.000000
                                        }
                                    }
                                }
                            }
                            JOINT RightHandIndex1
                            {
                                OFFSET -0.084320 0.000000 0.032791
                                CHANNELS 3 Zrotation Xrotation Yrotation
                                JOINT RightHandIndex2
                                {
                                    OFFSET -0.046844 0.000000 0.000000
                                    CHANNELS 3 Zrotation Xrotation Yrotation
                                    JOINT RightHandIndex3
                                    {
                                        OFFSET -0.023422 0.000000 0.000000
                                        CHANNELS 3 Zrotation Xrotation Yrotation
                                        End Site
                                        {
                                            OFFSET -0.021944 0.000000 0.000000
                                        }
                                    }
                                }
                            }
                            JOINT RightHandMiddle1
                            {
                                OFFSET -0.084320 0.000000 0.010868
                                CHANNELS 3 Zrotation Xrotation Yrotation
                                JOINT RightHandMiddle2
                                {
                                    OFFSET -0.051529 0.000000 0.000000
                                    CHANNELS 3 Zrotation Xrotation Yrotation
                                    JOINT RightHandMiddle3
                                    {
                                        OFFSET -0.028107 0.000000 0.000000
                                        CHANNELS 3 Zrotation Xrotation Yrotation
                                        End Site
                                        {
                                            OFFSET -0.026333 0.000000 0.000000
                                        }
                                    }
                                }
                            }
                            JOINT RightHandRing1
                            {
                                OFFSET -0.079635 0.000000 -0.010868
                                CHANNELS 3 Zrotation Xrotation Yrotation
                                JOINT RightHandRing2
                                {
                                    OFFSET -0.046844 0.000000 0.000000
                                    CHANNELS 3 Zrotation Xrotation Yrotation
                                    JOINT RightHandRing3
                                    {
                                        OFFSET -0.023422 0.000000 0.000000
                                        CHANNELS 3 Zrotation Xrotation Yrotation
                                        End Site
                                        {
                                            OFFSET -0.021944 0.000000 0.000000
                                        }
                                    }
                                }
                            }
                            JOINT RightHandPinky1
                            {
                                OFFSET -0.074951 0.000000 -0.032791
                                CHANNELS 3 Zrotation Xrotation Yrotation
                                JOINT RightHandPinky2
                                {
                                    OFFSET -0.037475 0.000000 0.000000
                                    CHANNELS 3 Zrotation Xrotation Yrotation
                                    JOINT RightHandPinky3
                                    {
                                        OFFSET -0.018738 0.000000 0.000000
                                        CHANNELS 3 Zrotation Xrotation Yrotation
                                        End Site
                                        {
                                            OFFSET -0.017555 0.000000 0.000000
                                        }
                                    }
                                }
                            }
                        }
                    }
                }
            }
        }
    }
    JOINT LeftUpLeg
    {
        OFFSET 0.093688 0.000000 0.000000
        CHANNELS 3 Zrotation Xrotation Yrotation
        JOINT LeftLeg
        {
            OFFSET -0.000000 -0.377687 0.000000
            CHANNELS 3 Zrotation Xrotation Yrotation
            JOINT LeftFoot
            {
                OFFSET -0.000000 -0.399231 0.000000
                CHANNELS 3 Zrotation Xrotation Yrotation
                JOINT LeftToeBase
                {
                    OFFSET -0.000000 -0.060897 0.140533
                    CHANNELS 3 Zrotation Xrotation Yrotation
                    End Site
                    {
                        OFFSET -0.000000 0.000000 0.037475
                    }
                }
            }
        }
    }
    JOINT RightUpLeg
    {
        OFFSET -0.093688 0.000000 0.000000
        CHANNELS 3 Zrotation Xrotation Yrotation
        JOINT RightLeg
        {
            OFFSET -0.000000 -0.377687 0.000000
            CHANNELS 3 Zrotation Xrotation Yrotation
            JOINT RightFoot
            {
                OFFSET -0.000000 -0.399231 0.000000
                CHANNELS 3 Zrotation Xrotation Yrotation
                JOINT RightToeBase
                {
                    OFFSET -0.000000 -0.060897 0.140533
                    CHANNELS 3 Zrotation Xrotation Yrotation
                    End Site
                    {
                        OFFSET -0.000000 0.000000 0.037475
                    }
                }
            }
        }
    }
}
MOTION
Frames:    5
Frame Time:    0.040000
-0.219396    0.867626    0.823395    2.835602    3.217493    -6.632748    -4.887628    -13.467336    -1.303466    3.193692    2.594052    -0.305226    5.410367    23.552330    15.665179    -8.679907    -5.287592    15.089542    19.620470    -1.761466    -4.331020    -16.683197    2.388724    -10.529162    -14.437626    25.321270    9.865902    15.391929    -13.193445    7.115022    -38.652378    6.733530    -34.696194    0.000000    0.000000    0.000000    0.000000    0.000000    0.000000    0.000000    0.000000    0.000000    0.000000    0.000000    0.000000    0.000000    0.000000    0.000000    6.977009    0.000000    -0.000000    0.000000    0.000000    0.000000    0.000000    0.000000    0.000000    13.954018    0.000000    -0.000000    0.000000    0.000000    0.000000    0.000000    0.000000    0.000000    21.142448    0.000000    -0.000000    0.000000    0.000000    0.000000    0.000000    0.000000    0.000000    -13.403252    0.222202    -5.096663    16.913910    1.528819    15.708851    6.517246    3.586461    -6.230311    -12.398558    7.460249    -3.993871    23.072506    -1.541701    24.241489    0.000000    0.000000    0.000000    0.000000    0.000000    0.000000    0.000000    0.000000    0.000000    0.000000    0.000000    0.000000    0.000000    0.000000    0.000000    0.292898    0.000000    -0.000000    0.585798    0.000000    -0.000000    0.292898    0.000000    -0.000000    0.585799    0.000000    -0.000000    1.171596    0.000000    -0.000000    0.585799    0.000000    -0.000000    0.887573    0.000000    -0.000000    1.775145    0.000000    -0.000000    0.887573    0.000000    -0.000000    3.806348    -4.060638    -4.091863    4.347404    15.697334    13.087234    -11.864885    -18.243383    -12.493696    1.744190    5.908720    -4.037295    -14.868312    7.493026    2.937076    3.858762    1.302040    -2.731109    92.304142    -8.145934    -6.436738    0.884810    1.291039    -3.489570    
-0.220112    0.867318    0.822004    2.728013    2.756745    -6.492217    -4.849954    -12.791393    -1.217219    2.901063    2.710070    -0.284299    5.396631    23.338102    15.455367    -8.769411    -5.863932    14.798106    19.537037    -1.485683    -4.138147    -16.592508    2.454139    -10.866130    -14.144232    25.321625    9.731318    15.601915    -13.193623    6.827188    -38.009819    6.315763    -34.311512    0.000000    0.000000    0.000000    0.000000    0.000000    0.000000    0.000000    0.000000    0.000000    0.000000    0.000000    0.000000    0.000000    0.000000    0.000000    7.135972    0.000000    -0.000000    0.000000    0.000000    0.000000    0.000000    0.000000    0.000000    14.271941    0.000000    -0.000000    0.000000    0.000000    0.000000    0.000000    0.000000    0.000000    21.624151    0.000000    -0.000000    0.000000    0.000000    0.000000    0.000000    0.000000    0.000000    -13.179616    0.475127    -4.864467    17.090666    0.554608    15.528865    6.987418    4.572227    -6.852195    -12.458173    7.214272    -4.712231    23.499453    -1.274653    24.324404    0.000000    0.000000    0.000000    0.000000    0.000000    0.000000    0.000000    0.000000    0.000000    0.000000    0.000000    0.000000    0.000000    0.000000    0.000000    0.457912    0.000000    -0.000000    0.915830    0.000000    -0.000000    0.457912    0.000000    -0.000000    0.915832    0.000000    -0.000000    1.831660    0.000000    -0.000000    0.915832    0.000000    -0.000000    1.387621    0.000000    -0.000000    2.775242    0.000000    -0.000000    1.387621    0.000000    -0.000000    3.793430    -4.152639    -3.809698    4.572918    16.503775    12.152408    -11.440677    -18.591286    -12.041937    1.674016    5.943395    -3.851086    -14.731950    7.777894    2.963027    3.849228    1.529107    -2.669158    92.224807    -8.269677    -6.566353    0.895099    1.461127    -3.520859    
-0.220746    0.867459    0.821250    2.588824    2.452003    -6.741116    -4.854289    -12.428277    -0.802879    3.004127    2.773821    -0.156135    5.396449    23.498158    15.154001    -9.241637    -6.493323    14.352888    19.488218    -0.855652    -3.994884    -16.726879    2.490946    -11.481208    -13.961943    25.250683    9.559532    15.841690    -13.439469    7.317025    -38.649055    6.924629    -34.333687    0.000000    0.000000    0.000000    0.000000    0.000000    0.000000    0.000000    0.000000    0.000000    0.000000    0.000000    0.000000    0.000000    0.000000    0.000000    6.936422    0.000000    -0.000000    0.000000    0.000000    0.000000    0.000000    0.000000    0.000000    13.872845    0.000000    -0.000000    0.000000    0.000000    0.000000    0.000000    0.000000    0.000000    21.019464    0.000000    -0.000000    0.000000    0.000000    0.000000    0.000000    0.000000    0.000000    -13.209286    0.580693    -4.954315    17.178110    0.129912    15.492542    7.246400    5.042863    -7.102013    -12.355790    7.111764    -4.960086    23.496994    -1.242670    24.263290    0.000000    0.000000    0.000000    0.000000    0.000000    0.000000    0.000000    0.000000    0.000000    0.000000    0.000000    0.000000    0.000000    0.000000    0.000000    0.591752    0.000000    -0.000000    1.183504    0.000000    -0.000000    0.591752    0.000000    -0.000000    1.183504    0.000000    -0.000000    2.367007    0.000000    -0.000000    1.183504    0.000000    -0.000000    1.793187    0.000000    -0.000000    3.586374    0.000000    -0.000000    1.793187    0.000000    -0.000000    3.940168    -4.006685    -3.514672    4.641162    16.799835    12.444611    -11.660661    -18.489996    -12.465063    1.709968    5.889028    -3.952091    -14.664784    7.807453    2.939993    3.902345    1.804763    -2.473298    92.266317    -8.263103    -6.410604    0.872132    1.383672    -3.436403    
-0.220775    0.867634    0.820999    2.561002    2.487585    -6.961834    -4.748066    -12.736475    -0.564899    2.868028    3.102385    -0.088328    5.353420    23.641846    14.944533    -9.501044    -6.769507    14.065735    19.401531    -0.877311    -4.157236    -16.812296    2.394413    -11.256586    -14.129183    25.710821    9.606149    16.282248    -13.195197    7.185960    -38.569851    6.936728    -34.167767    0.000000    0.000000    0.000000    0.000000    0.000000    0.000000    0.000000    0.000000    0.000000    0.000000    0.000000    0.000000    0.000000    0.000000    0.000000    6.554885    0.000000    -0.000000    0.000000    0.000000    0.000000    0.000000    0.000000    0.000000    13.109767    0.000000    -0.000000    0.000000    0.000000    0.000000    0.000000    0.000000    0.000000    19.863285    0.000000    -0.000000    0.000000    0.000000    0.000000    0.000000    0.000000    0.000000    -13.278901    0.559666    -5.029610    17.202217    0.878594    15.585484    6.950444    3.992185    -6.757461    -12.115305    7.750400    -4.690956    23.150352    -1.588818    24.428127    0.000000    0.000000    0.000000    0.000000    0.000000    0.000000    0.000000    0.000000    0.000000    0.000000    0.000000    0.000000    0.000000    0.000000    0.000000    0.695742    0.000000    -0.000000    1.391483    0.000000    -0.000000    0.695742    0.000000    -0.000000    1.391483    0.000000    -0.000000    2.782966    0.000000    -0.000000    1.391483    0.000000    -0.000000    2.108308    0.000000    -0.000000    4.216615    0.000000    -0.000000    2.108308    0.000000    -0.000000    3.932167    -4.031007    -3.314089    4.703783    16.832165    12.282542    -11.442696    -18.537519    -12.239026    1.673247    5.871661    -3.860011    -14.642329    7.736206    2.747615    3.864337    1.716554    -2.051422    92.284540    -8.159070    -6.480750    0.856257    1.329897    -3.377792    
-0.220251    0.867392    0.821003    2.625821    2.546502    -7.091657    -4.479129    -12.921144    -0.494251    2.341750    3.035932    -0.054250    5.514709    23.667824    14.838994    -9.669364    -6.341523    13.970677    19.388252    -0.823687    -4.046294    -16.758339    1.914957    -11.308084    -14.495763    26.028601    9.773991    16.337170    -13.467987    8.478374    -40.184162    8.369214    -34.389988    0.000000    0.000000    0.000000    0.000000    0.000000    0.000000    0.000000    0.000000    0.000000    0.000000    0.000000    0.000000    0.000000    0.000000    0.000000    6.627456    0.000000    -0.000000    0.000000    0.000000    0.000000    0.000000    0.000000    0.000000    13.254912    0.000000    -0.000000    0.000000    0.000000    0.000000    0.000000    0.000000    0.000000    20.083200    0.000000    -0.000000    0.000000    0.000000    0.000000    0.000000    0.000000    0.000000    -13.137093    0.595192    -4.938382    17.156992    1.441396    15.747432    6.460853    3.216509    -6.364472    -12.088459    7.738354    -4.646455    23.334831    -1.353568    24.249151    0.000000    0.000000    0.000000    0.000000    0.000000    0.000000    0.000000    0.000000    0.000000    0.000000    0.000000    0.000000    0.000000    0.000000    0.000000    0.694392    0.000000    -0.000000    1.388785    0.000000    -0.000000    0.694392    0.000000    -0.000000    1.388785    0.000000    -0.000000    2.777569    0.000000    -0.000000    1.388785    0.000000    -0.000000    2.104219    0.000000    -0.000000    4.208438    0.000000    -0.000000    2.104219    0.000000    -0.000000    3.736499    -3.899455    -4.421433    4.535960    16.622326    13.563078    -11.344398    -18.460556    -12.154650    1.638352    5.873724    -3.769653    -14.711931    7.786712    2.622146    3.776531    1.418693    -1.825487    92.322108    -8.015668    -6.461790    0.879514    1.262387    -3.470525    
